<?xml version="1.0" encoding="UTF-8"?>
<!DOCTYPE svg PUBLIC "-//W3C//DTD SVG 1.1//EN" "http://www.w3.org/Graphics/SVG/1.1/DTD/svg11.dtd">
<!-- Creator: CorelDRAW -->
<svg xmlns="http://www.w3.org/2000/svg" xml:space="preserve" width="14.8166mm" height="14.8166mm" version="1.1" style="shape-rendering:geometricPrecision; text-rendering:geometricPrecision; image-rendering:optimizeQuality; fill-rule:evenodd; clip-rule:evenodd"
viewBox="0 0 71.48 71.48"
 xmlns:xlink="http://www.w3.org/1999/xlink"
 xmlns:xodm="http://www.corel.com/coreldraw/odm/2003">
 <defs>
  <style type="text/css">
   <![CDATA[
    .str0 {stroke:#D8DDE1;stroke-width:1.28;stroke-miterlimit:22.9256}
    .fil0 {fill:none;fill-rule:nonzero}
    .fil2 {fill:#000D44}
    .fil1 {fill:#FEFEFE}
   ]]>
  </style>
 </defs>
 <g id="Слой_x0020_1">
  <metadata id="CorelCorpID_0Corel-Layer"/>
  <path class="fil0 str0" d="M35.74 0.64l0 0c19.38,0 35.1,15.72 35.1,35.1l0 0c0,19.38 -15.72,35.1 -35.1,35.1l-0 0c-19.38,-0 -35.1,-15.72 -35.1,-35.1l-0 0c0,-19.38 15.72,-35.1 35.1,-35.1z"/>
  <g id="_2110270015584">
   <path class="fil1" d="M30.96 24.86c-13.06,2.82 -8.87,22.18 4.11,19.54 4.78,-0.97 8.93,-5.86 7.67,-11.96 -0.97,-4.71 -5.99,-8.82 -11.78,-7.57z"/>
   <path class="fil2" d="M30.96 24.86c5.79,-1.25 10.81,2.87 11.78,7.57 1.26,6.1 -2.89,10.99 -7.67,11.96 -12.99,2.65 -17.17,-16.72 -4.11,-19.54zm9.94 20.03c3.71,2.32 7.2,9.3 10.67,8.36 0.55,-2.25 -0.78,-2.71 -3.65,-5.58 -1.36,-1.36 -3.46,-3.73 -4.84,-4.71 0.66,-2.09 3.22,-4.33 2.65,-9.66 -1.22,-11.36 -14.68,-15.16 -21.9,-7.8 -7.43,7.58 -3.33,20.67 7.7,21.96 4.52,0.53 6.51,-1.07 9.37,-2.56z"/>
  </g>
 </g>
</svg>
