<svg width="57" height="56" viewBox="0 0 57 56" fill="none" xmlns="http://www.w3.org/2000/svg">
<rect x="0.580078" y="0.5" width="55" height="55" rx="27.5" fill="white"/>
<rect x="0.580078" y="0.5" width="55" height="55" rx="27.5" stroke="#D8DDE1"/>
<rect x="36.98" y="1" width="18.09" height="18" rx="9" fill="#04CE78"/>
<path d="M46.2839 14.144C45.7079 14.144 45.2079 14.04 44.7839 13.832C44.3599 13.624 44.0199 13.34 43.7639 12.98C43.5159 12.612 43.3639 12.196 43.3079 11.732H44.2919C44.3879 12.196 44.6119 12.572 44.9639 12.86C45.3159 13.14 45.7599 13.28 46.2959 13.28C46.6959 13.28 47.0399 13.188 47.3279 13.004C47.6159 12.812 47.8359 12.556 47.9879 12.236C48.1479 11.916 48.2279 11.56 48.2279 11.168C48.2279 10.544 48.0519 10.04 47.6999 9.656C47.3479 9.272 46.8919 9.08 46.3319 9.08C45.8679 9.08 45.4719 9.184 45.1439 9.392C44.8159 9.6 44.5759 9.872 44.4239 10.208H43.4639L44.1839 5.6H48.5879V6.476H44.9639L44.4719 9.032C44.6639 8.8 44.9279 8.608 45.2639 8.456C45.6079 8.304 45.9999 8.228 46.4399 8.228C46.9919 8.228 47.4719 8.356 47.8799 8.612C48.2959 8.868 48.6199 9.216 48.8519 9.656C49.0839 10.096 49.1999 10.596 49.1999 11.156C49.1999 11.692 49.0839 12.188 48.8519 12.644C48.6279 13.1 48.2959 13.464 47.8559 13.736C47.4239 14.008 46.8999 14.144 46.2839 14.144Z" fill="white"/>
</svg>
