<?xml version="1.0" encoding="UTF-8"?>
<!DOCTYPE svg PUBLIC "-//W3C//DTD SVG 1.1//EN" "http://www.w3.org/Graphics/SVG/1.1/DTD/svg11.dtd">
<!-- Creator: CorelDRAW -->
<svg xmlns="http://www.w3.org/2000/svg" xml:space="preserve" width="14.8166mm" height="14.8166mm" version="1.1" style="shape-rendering:geometricPrecision; text-rendering:geometricPrecision; image-rendering:optimizeQuality; fill-rule:evenodd; clip-rule:evenodd"
viewBox="0 0 762.4 762.4"
 xmlns:xlink="http://www.w3.org/1999/xlink"
 xmlns:xodm="http://www.corel.com/coreldraw/odm/2003">
 <defs>
  <style type="text/css">
   <![CDATA[
    .str0 {stroke:#D8DDE1;stroke-width:13.62;stroke-miterlimit:22.9256}
    .fil3 {fill:none;fill-rule:nonzero}
    .fil0 {fill:#000D44}
    .fil1 {fill:#FDFDFD}
    .fil4 {fill:#04CE78;fill-rule:nonzero}
    .fil2 {fill:white;fill-rule:nonzero}
   ]]>
  </style>
 </defs>
 <g id="Слой_x0020_1">
  <metadata id="CorelCorpID_0Corel-Layer"/>
  <g id="_2110299434912">
   <g>
    <path class="fil0" d="M197.04 240.54l371.86 0.63 -43.84 152.38 -298.73 0.36 -29.28 -153.36zm-120.1 -39.41c19.35,12.96 34.2,8.48 62.37,8.54 13.8,4.73 35,150.81 38.99,171.54 21.69,112.42 10.92,148.25 63.16,148.25 86.54,0 233.44,5.03 312.9,-4.62 8.15,-35.98 -5.04,-40.45 -40.16,-40.27 -61.19,0.32 -231.14,3.81 -271.59,-1.33l-7.91 -44.62c86.23,-1.62 173.75,-0.69 259.77,-0.31 80.28,0.36 60.57,12.44 107.55,-153.62 9.23,-32.59 31.23,-79.84 -10.77,-87.77 -25.79,-4.86 -375.93,2.26 -393.56,-0.82 -13.29,-4.79 -5.53,-0.63 -13.04,-11.92 -1.47,-2.21 -5.42,-11.68 -7.52,-15.29 -40.05,-6.68 -109.48,-17.55 -100.18,32.24z"/>
    <polygon class="fil1" points="226.32,393.89 525.06,393.54 568.9,241.16 197.04,240.54 "/>
    <path class="fil0" d="M498.72 564.28c-55.12,19.8 -26.2,103.04 32.29,82.6 48.73,-17.03 27.45,-104.05 -32.29,-82.6z"/>
    <path class="fil0" d="M225.28 563.8c-52.68,17.77 -26.82,105.23 33.26,82.89 46.37,-17.25 23.77,-102.12 -33.26,-82.89z"/>
   </g>
   <g>
    <path class="fil2" d="M381.2 6.81l0 0c206.73,0 374.39,167.66 374.39,374.39l0 0c0,206.73 -167.66,374.39 -374.39,374.39l-0.01 0.01c-206.73,-0.01 -374.39,-167.66 -374.39,-374.39l-0.01 0c0.01,-206.73 167.66,-374.39 374.4,-374.39z"/>
    <path class="fil3 str0" d="M381.2 6.81l0 0c206.73,0 374.39,167.66 374.39,374.39l0 0c0,206.73 -167.66,374.39 -374.39,374.39l-0.01 0.01c-206.73,-0.01 -374.39,-167.66 -374.39,-374.39l-0.01 0c0.01,-206.73 167.66,-374.39 374.4,-374.39z"/>
    <path class="fil4" d="M624.89 13.61l1.22 0c67.66,0 122.53,54.87 122.53,122.53l0 0c0,67.66 -54.87,122.53 -122.53,122.53l-1.22 -0.01c-67.66,0.01 -122.53,-54.87 -122.53,-122.53l0.01 0c-0.01,-67.66 54.87,-122.53 122.53,-122.53z"/>
    <path class="fil2" d="M629.03 192.56c-7.84,0 -14.65,-1.42 -20.42,-4.25 -5.77,-2.84 -10.4,-6.7 -13.88,-11.6 -3.38,-5.01 -5.45,-10.68 -6.21,-16.99l13.4 0c1.31,6.31 4.35,11.43 9.15,15.35 4.79,3.81 10.84,5.72 18.13,5.72 5.44,0 10.13,-1.25 14.05,-3.76 3.92,-2.61 6.92,-6.1 8.99,-10.46 2.18,-4.36 3.27,-9.21 3.27,-14.54 0,-8.5 -2.4,-15.35 -7.19,-20.58 -4.8,-5.23 -11,-7.84 -18.63,-7.84 -6.31,0 -11.71,1.42 -16.17,4.25 -4.47,2.84 -7.73,6.53 -9.8,11.11l-13.07 0 9.8 -62.73 59.96 0 0 11.93 -49.34 0 -6.7 34.8c2.61,-3.16 6.21,-5.77 10.78,-7.84 4.69,-2.07 10.02,-3.1 16.01,-3.1 7.51,0 14.05,1.74 19.6,5.23 5.67,3.48 10.08,8.22 13.23,14.21 3.16,5.99 4.73,12.8 4.73,20.42 0,7.3 -1.57,14.05 -4.73,20.26 -3.05,6.21 -7.57,11.16 -13.56,14.87 -5.88,3.7 -13.01,5.55 -21.4,5.55z"/>
   </g>
  </g>
  <g id="_2110299436736">
   <path class="fil0" d="M222.33 279.85l298.27 0.5 -35.16 122.23 -239.62 0.28 -23.49 -123.01zm-96.34 -31.61c15.52,10.4 27.43,6.8 50.03,6.85 11.06,3.8 28.07,120.97 31.28,137.6 17.4,90.18 8.76,118.91 50.66,118.91 69.41,0 187.25,4.03 250.98,-3.7 6.54,-28.87 -4.04,-32.45 -32.21,-32.3 -49.08,0.26 -185.41,3.06 -217.85,-1.07l-6.34 -35.8c69.17,-1.29 139.37,-0.55 208.37,-0.24 64.4,0.28 48.59,9.97 86.28,-123.22 7.39,-26.14 25.05,-64.05 -8.64,-70.4 -20.69,-3.9 -301.55,1.81 -315.69,-0.66 -10.66,-3.84 -4.44,-0.51 -10.46,-9.56 -1.18,-1.77 -4.35,-9.37 -6.03,-12.27 -32.12,-5.36 -87.82,-14.07 -80.36,25.86z"/>
   <polygon class="fil1" points="245.82,402.86 485.44,402.58 520.6,280.35 222.33,279.85 "/>
   <path class="fil0" d="M464.32 539.53c-44.21,15.88 -21.01,82.65 25.9,66.26 39.09,-13.66 22.02,-83.47 -25.9,-66.26z"/>
   <path class="fil0" d="M244.99 539.15c-42.26,14.25 -21.51,84.41 26.67,66.48 37.19,-13.84 19.07,-81.91 -26.67,-66.48z"/>
  </g>
 </g>
</svg>
