<?xml version="1.0" encoding="UTF-8"?>
<!DOCTYPE svg PUBLIC "-//W3C//DTD SVG 1.1//EN" "http://www.w3.org/Graphics/SVG/1.1/DTD/svg11.dtd">
<!-- Creator: CorelDRAW -->
<svg xmlns="http://www.w3.org/2000/svg" xml:space="preserve" width="14.8166mm" height="14.8166mm" version="1.1" style="shape-rendering:geometricPrecision; text-rendering:geometricPrecision; image-rendering:optimizeQuality; fill-rule:evenodd; clip-rule:evenodd"
viewBox="0 0 230.01 230.01"
 xmlns:xlink="http://www.w3.org/1999/xlink"
 xmlns:xodm="http://www.corel.com/coreldraw/odm/2003">
 <defs>
  <style type="text/css">
   <![CDATA[
    .str0 {stroke:#D8DDE1;stroke-width:4.11;stroke-miterlimit:22.9256}
    .fil0 {fill:none;fill-rule:nonzero}
    .fil1 {fill:#000D44}
   ]]>
  </style>
 </defs>
 <g id="Слой_x0020_1">
  <metadata id="CorelCorpID_0Corel-Layer"/>
  <path class="fil0 str0" d="M115.01 2.05l0 0c62.37,0 112.95,50.58 112.95,112.95l0 0c0,62.37 -50.58,112.95 -112.95,112.95l-0 0c-62.37,-0 -112.95,-50.58 -112.95,-112.95l-0 0c0,-62.37 50.58,-112.95 112.96,-112.95z"/>
  <g id="_2110272902416">
   <path class="fil1" d="M164.88 126.39l0.43 -6.59c-6.89,-3.82 -59.15,-1.9 -74.58,-1.91 -6.21,0 -20.17,-2.46 -21.28,4.3 -1.43,8.65 14.16,5.89 20.17,5.89 14.56,-0 69.27,1.59 75.26,-1.69z"/>
   <path class="fil1" d="M69.85 160.82c2.52,1.68 3.56,1.94 7.57,1.94l79.86 0c4.7,0 4.67,-0.13 7.77,-1.71l0.11 -6.65c-2.34,-1.09 -4.64,-1.83 -7.88,-1.83l-79.86 0c-6.3,0 -8.74,1.95 -7.57,8.24z"/>
   <path class="fil1" d="M70.25 92.57l87.03 0.9c6.56,0 8.69,-1.71 7.85,-8.37 -2.89,-1.56 -3.24,-1.88 -7.85,-1.88l-79.86 0c-7.72,0 -9.38,2.45 -7.17,9.35z"/>
  </g>
 </g>
</svg>
