<svg width="31" height="32" viewBox="0 0 31 32" fill="none" xmlns="http://www.w3.org/2000/svg">
<g clip-path="url(#clip0_5_267)">
<path d="M9.63037 8.75861V12.1129H10.7793V9.89833C10.3788 9.5417 10.0008 9.15763 9.63037 8.75861Z" fill="#1F5FFF"/>
<path d="M20.373 9.68385V12.1129H21.5894V8.50922C21.1889 8.90575 20.7835 9.29979 20.373 9.68385Z" fill="#1F5FFF"/>
<path d="M20.3729 21.6048V25.9816H20.3679C20.2778 28.5204 18.1779 30.5604 15.6099 30.5604C13.0394 30.5604 10.9394 28.5229 10.8518 25.9816H10.8468V21.6048H9.63037V25.812C9.63037 29.0965 12.3135 31.77 15.6099 31.77C18.9062 31.77 21.5894 29.0965 21.5894 25.812V21.6048H20.3729Z" fill="#1F5FFF"/>
<path d="M10.8468 21.6048H7.53544V21.5724H6.58933C3.96377 21.5724 1.82628 19.4426 1.82628 16.8265C1.82628 14.2103 3.96377 12.0805 6.58933 12.0805H10.7793V10.8685H6.58933C3.29299 10.8685 0.609863 13.542 0.609863 16.8265C0.609863 20.1109 3.29299 22.7844 6.58933 22.7844H10.8468V21.6048Z" fill="#1F5FFF"/>
<path d="M24.6305 10.8685H20.373V12.0805H24.6305C27.256 12.0805 29.3935 14.2103 29.3935 16.8265C29.3935 19.4426 27.256 21.5724 24.6305 21.5724H23.0761V21.6048H20.373V22.7819H24.6305C27.9268 22.7819 30.6099 20.1085 30.6099 16.824C30.6099 13.5395 27.9268 10.8685 24.6305 10.8685Z" fill="#1F5FFF"/>
<path d="M10.1034 26.3183C8.09101 26.3183 6.4541 24.6872 6.4541 22.6821C6.4541 20.677 8.09101 19.046 10.1034 19.046C12.1157 19.046 13.7527 20.677 13.7527 22.6821C13.7527 24.6872 12.1157 26.3183 10.1034 26.3183ZM10.1034 20.258C8.7618 20.258 7.67052 21.3454 7.67052 22.6821C7.67052 24.0189 8.7618 25.1062 10.1034 25.1062C11.445 25.1062 12.5362 24.0189 12.5362 22.6821C12.5362 21.3454 11.445 20.258 10.1034 20.258Z" fill="#04CE78"/>
<path d="M11.9461 24.5871C13.0017 23.5353 13.0017 21.8299 11.9461 20.7781C10.8904 19.7262 9.17891 19.7262 8.12327 20.7781C7.06764 21.8299 7.06764 23.5353 8.12327 24.5871C9.17891 25.639 10.8904 25.639 11.9461 24.5871Z" fill="#04CE78"/>
<path d="M10.1034 26.3183C8.09101 26.3183 6.4541 24.6872 6.4541 22.6821C6.4541 20.677 8.09101 19.046 10.1034 19.046C12.1157 19.046 13.7527 20.677 13.7527 22.6821C13.7527 24.6872 12.1157 26.3183 10.1034 26.3183ZM10.1034 20.258C8.7618 20.258 7.67052 21.3454 7.67052 22.6821C7.67052 24.0189 8.7618 25.1062 10.1034 25.1062C11.445 25.1062 12.5362 24.0189 12.5362 22.6821C12.5362 21.3454 11.445 20.258 10.1034 20.258Z" fill="#1F5FFF"/>
<path d="M15.7949 11.5069V18.253C15.7949 20.3254 17.2641 22.0088 19.344 22.0088L24.4274 22.0762" stroke="#1F5FFF" stroke-width="1.3" stroke-miterlimit="10" stroke-linecap="round" stroke-linejoin="round"/>
<path d="M14.4834 1.93778L13.7551 1.8904C10.6515 1.6834 8.88184 5.47665 11.132 7.61394C11.1921 7.6713 11.2572 7.72866 11.3222 7.78353L15.5096 11.5743" stroke="#1F5FFF" stroke-width="1.3" stroke-miterlimit="10" stroke-linecap="round" stroke-linejoin="round"/>
<path d="M17.2215 1.82554L17.9499 1.77815C21.0535 1.57116 22.8231 5.36441 20.573 7.5017C20.5129 7.55906 20.4478 7.61642 20.3827 7.67128L16.1953 11.462" stroke="#1F5FFF" stroke-width="1.3" stroke-miterlimit="10" stroke-linecap="round" stroke-linejoin="round"/>
</g>
<defs>
<clipPath id="clip0_5_267">
<rect width="30" height="31" fill="white" transform="translate(0.609863 0.77002)"/>
</clipPath>
</defs>
</svg>
