<svg width="16" height="16" viewBox="0 0 16 16" fill="none" xmlns="http://www.w3.org/2000/svg">
<path d="M15.84 7.79993C15.84 12.0812 12.34 15.5499 8.09 15.5499C3.80875 15.5499 0.339996 12.0812 0.339996 7.79993C0.339996 3.54993 3.80875 0.0499268 8.09 0.0499268C12.34 0.0499268 15.84 3.54993 15.84 7.79993ZM7.18375 11.9249L12.9337 6.17493C13.1212 5.98743 13.1212 5.64368 12.9337 5.45618L12.215 4.76868C12.0275 4.54993 11.715 4.54993 11.5275 4.76868L6.84 9.45618L4.62125 7.26868C4.43375 7.04993 4.12125 7.04993 3.93375 7.26868L3.215 7.95618C3.0275 8.14368 3.0275 8.48743 3.215 8.67493L6.465 11.9249C6.6525 12.1124 6.99625 12.1124 7.18375 11.9249Z" fill="#04CE78"/>
</svg>
